<svg font-family="sans-serif" font-size="13px" version="1.1" viewBox="0 0 600 450" xmlns="http://www.w3.org/2000/svg">
 <style>.box { fill: #f0f7ff; stroke: #005a9c; stroke-width: 1.5; rx: 5; ry: 5; }
        .background { fill: #fff; stroke: none; }
        .outer-box { fill: none; stroke: #aaa; stroke-width: 1; stroke-dasharray: 5,5; }
        .label { text-anchor: middle; fill: #111; }
        .arrow { stroke: #333; stroke-width: 1.5; fill: none; }
        .arrow-head { fill: #333; }</style>
 <defs>
  <marker id="arrowhead" markerHeight="7" markerWidth="10" orient="auto" refY="3.5">
   <polygon class="arrow-head" points="0 0 10 3.5 0 7"/>
  </marker>
 </defs>
 <rect class="background" width="600" height="450"/>
 <rect class="outer-box" x="1" y="1" width="598" height="350"/>
 <text class="label" x="300" y="25" font-size="16px" font-weight="bold">Ysc2Core</text>
 <rect class="box" x="50" y="60" width="180" height="70"/>
 <text class="label" x="140" y="90">state [1024 bits]</text>
 <text class="label" x="140" y="110">(장기 상태)</text>
 <rect class="box" x="50" y="200" width="180" height="70"/>
 <text class="label" x="140" y="230">counter [64 bits]</text>
 <text class="label" x="140" y="250">(1씩 증가)</text>
 <rect class="box" x="350" y="60" width="180" height="70"/>
 <text class="label" x="440" y="95">working_state</text>
 <text class="label" x="440" y="115">(임시 상태)</text>
 <rect class="box" x="350" y="160" width="180" height="50"/>
 <text class="label" x="440" y="190">counter 값 XOR</text>
 <rect class="box" x="350" y="240" width="180" height="50"/>
 <text class="label" x="440" y="260">permutation&lt;V&gt;(...)</text>
 <text class="label" x="440" y="280">(라운드 함수 적용)</text>
 <rect class="box" x="210" y="380" width="180" height="50"/>
 <text class="label" x="300" y="400">Keystream Block</text>
 <text class="label" x="300" y="420">[1024 bits]</text>
 <path class="arrow" d="m230 95h104.22" marker-end="url(#arrowhead)"/>
 <path class="arrow" d="m230 235c50 0 34.215-50 104.22-50" marker-end="url(#arrowhead)"/>
 <path class="arrow" d="m440 130v14.215" marker-end="url(#arrowhead)"/>
 <path class="arrow" d="m440 210v14.215" marker-end="url(#arrowhead)"/>
 <path class="arrow" d="m440 290v40c0 30-140 14.215-140 34.215" marker-end="url(#arrowhead)"/>
</svg>
